<svg xmlns="http://www.w3.org/2000/svg" viewBox="0 0 64 64">
  <defs>
    <linearGradient id="grad-favicon_r6site_2_graphite_bronze.svg" x1="0" y1="0" x2="1" y2="1">
      <stop offset="0%" stop-color="#fbfcfd"/>
      <stop offset="100%" stop-color="#9fb1bf"/>
    </linearGradient>
  </defs>
  <rect width="64" height="64" rx="14" fill="#101317"/>
  <g fill="none" stroke-linecap="round">
    <path d="M20 11.2A21 21 0 0 1 44 11.2" stroke="#c7d3dc" stroke-width="1.46"/>
    <path d="M52.8 20A21 21 0 0 1 52.8 44" stroke="#8fa2b1" stroke-width="1.46"/>
    <path d="M44 52.8A21 21 0 0 1 20 52.8" stroke="#c7d3dc" stroke-width="1.46"/>
    <path d="M11.2 44A21 21 0 0 1 11.2 20" stroke="#8fa2b1" stroke-width="1.46"/>
    <circle cx="32" cy="32" r="20.5" stroke="#e1e8ed" stroke-width="1.02" opacity="0.52"/>
  </g>
  <g fill="#c08a4a">
    <circle cx="20" cy="11.2" r="1.24"/><circle cx="44" cy="11.2" r="1.24"/>
    <circle cx="52.8" cy="20" r="1.24"/><circle cx="52.8" cy="44" r="1.24"/>
    <circle cx="44" cy="52.8" r="1.24"/><circle cx="20" cy="52.8" r="1.24"/>
    <circle cx="11.2" cy="44" r="1.24"/><circle cx="11.2" cy="20" r="1.24"/>
  </g>
  <text x="32" y="40"
        text-anchor="middle"
        fill="url(#grad-favicon_r6site_2_graphite_bronze.svg)"
        font-family="'Segoe UI', Arial, sans-serif"
        font-size="24.5"
        font-weight="800"
        letter-spacing="0.10px">LS</text>
</svg>